# xmcd
# 
# Track frame offsets:
#     150
#     40542
#     70300
#     95465
#     136662
#     190137
# 
# Disc length: 3147
# 
# Revision: 1
# Processed by: cddbd v1.5.2PL0 Copyright (c) Steve Scherf et al.
# Submitted via: BonkEnc v1.0.8
# 
DISCID=460c4906
DTITLE=Paul Bley - Zen Palace
DYEAR=1993
DGENRE=Contemporary Jazz
TTITLE0=Deviation
TTITLE1=Almost Persuaded
TTITLE2=Ah-Ha
TTITLE3=Latin Ideas
TTITLE4=Zen Palace
TTITLE5=Where Is Paul?
EXTD=YEAR: 1993
EXTT0=
EXTT1=
EXTT2=
EXTT3=
EXTT4=
EXTT5=
PLAYORDER=
